<svg width="48" height="24" viewBox="0 0 48 24" fill="none" xmlns="http://www.w3.org/2000/svg">
<path d="M24.0172 0C23.9672 0.000273761 23.9182 0.00142623 23.8682 0.00383857C22.1971 -0.0098685 20.7948 1.37577 20.6175 3.00173C20.4783 3.63566 20.4105 4.6299 21.2431 4.79044C21.9501 4.95333 22.4252 4.19856 22.3043 3.56593C22.3444 2.65202 22.8994 1.64223 23.9241 1.73877C25.0964 1.6303 26.2638 2.81639 25.827 4.0074C25.5093 5.22177 24.3406 5.9273 23.5518 6.80949C23.2878 7.19292 23.1798 7.62891 23.1384 8.08009C23.0971 8.53123 23.1223 9.97824 23.1198 10.4216C16.2648 13.5313 8.4265 16.1029 1.58924 19.2425C0.29852 19.941 -0.543209 21.7912 0.408837 23.0773C1.36085 24.2949 3.11586 23.9406 4.4602 23.9832C17.6069 23.9707 32.6624 24.0075 45.8079 23.964C47.0397 23.9264 48.1697 22.8448 47.9788 21.5725C47.8442 20.0457 46.4477 19.0913 45.1012 18.6343C39.3518 16.0401 32.841 13.8401 26.9296 11.3293C26.8223 11.2784 26.7017 11.2487 26.5759 11.2487C26.1089 11.2487 25.7306 11.6387 25.7306 12.12C25.7306 12.4969 25.9643 12.8199 26.2891 12.9415C32.4952 15.5793 39.2857 17.9176 45.3246 20.6417C45.8006 20.9096 46.508 21.5148 46.1289 22.0965C45.2489 22.4429 44.2136 22.1472 43.2803 22.2463C30.2373 22.2338 15.2866 22.2705 2.24481 22.2271C1.59503 22.2754 1.66394 21.4484 2.01767 21.1599C2.9496 20.2397 4.36102 20.0033 5.48813 19.3673C11.339 16.7281 18.1439 14.5789 23.9945 11.9396C24.7864 11.6333 24.8403 10.9443 24.8621 10.4234C24.8993 10.1583 24.8586 8.87002 24.8472 8.57325C24.8358 8.27643 24.8536 7.99093 25.0036 7.7633C26.5685 6.57561 28.0882 4.61371 27.5208 2.5275C27.1073 1.00239 25.5702 -0.0068173 24.02 0.00165826L24.0172 0Z" fill="#440000"/>
</svg>
