<svg width="31" height="26" viewBox="0 0 31 26" fill="none" xmlns="http://www.w3.org/2000/svg">
<path d="M1 8.78026C1.00003 7.21071 1.48951 5.67809 2.40379 4.38482C3.31807 3.09155 4.61414 2.09848 6.12082 1.53675C7.62749 0.975026 9.2739 0.871082 10.8426 1.23864C12.4113 1.60621 13.8284 2.42799 14.9069 3.59545C14.9829 3.67445 15.0747 3.73744 15.1767 3.7805C15.2787 3.82356 15.3887 3.84578 15.5 3.84578C15.6112 3.84578 15.7212 3.82356 15.8232 3.7805C15.9252 3.73744 16.017 3.67445 16.093 3.59545C17.1681 2.4204 18.5856 1.59171 20.1568 1.21968C21.728 0.847656 23.3785 0.949929 24.8885 1.51289C26.3985 2.07585 27.6964 3.07281 28.6095 4.37105C29.5226 5.6693 30.0076 7.20727 29.9999 8.78026C29.9999 12.0102 27.8249 14.4221 25.6499 16.5377L17.6865 24.0315C17.4164 24.3333 17.0832 24.5758 16.7093 24.7428C16.3354 24.9097 15.9292 24.9974 15.5178 24.9999C15.1063 25.0025 14.699 24.9198 14.323 24.7575C13.9469 24.5951 13.6107 24.3568 13.3366 24.0583L5.34999 16.5377C3.17499 14.4221 1 12.0243 1 8.78026Z" stroke="#440000" stroke-width="2" stroke-linecap="round" stroke-linejoin="round"/>
</svg>
