<svg width="29" height="29" viewBox="0 0 29 29" fill="none" xmlns="http://www.w3.org/2000/svg">
<path d="M22.6 25.3C22.6 23.1517 21.7466 21.0915 20.2276 19.5724C18.7085 18.0534 16.6483 17.2 14.5 17.2M14.5 17.2C12.3517 17.2 10.2915 18.0534 8.77244 19.5724C7.25339 21.0915 6.4 23.1517 6.4 25.3M14.5 17.2C17.4823 17.2 19.9 14.7823 19.9 11.8C19.9 8.81766 17.4823 6.4 14.5 6.4C11.5177 6.4 9.1 8.81766 9.1 11.8C9.1 14.7823 11.5177 17.2 14.5 17.2ZM28 14.5C28 21.9558 21.9558 28 14.5 28C7.04416 28 1 21.9558 1 14.5C1 7.04416 7.04416 1 14.5 1C21.9558 1 28 7.04416 28 14.5Z" stroke="black" stroke-width="2" stroke-linecap="round" stroke-linejoin="round"/>
</svg>
